#!OML:ASF F:\VICON\USERDATA\INSTALL\rory3\rory3.ASF
:FULLY-SPECIFIED
:DEGREES
32
root 0.12868496529845952 18.117782699847226 2.1837377766548727 4.427744995401917 -0.9715456253323282 -4.169453743323602
lfemur -31.769708027419895 0.02800946429251666 -16.601761355891895
ltibia 26.051726476707227
lfoot 4.946691257981753 -9.901485852067353
ltoes -14.059027294589725
rfemur -4.848616052803441 5.235365344925304 32.0275138133504
rtibia 59.671432438581185
rfoot 8.01623123164944 1.373255887687617
rtoes 10.753405851221528
lowerback -8.881784189112644e-10 1.090378935910879 3.129086533191201
upperback -0.904786878282791 3.4402754288158697 1.505630200188466
thorax -8.112569640893016 1.6091839118360065 -2.027237828674155
lowerneck -19.04940656791176 -4.506255435316054 -1.5437920402347083
upperneck 8.037879698035413 -7.3731279171250295 5.164864974410006
head 7.10680864531126 -2.835226100648385 1.2634895134709694
lclavicle -2.2333483523400113e-07 -5.730306664468564e-07
lhumerus -61.207257999972406 -6.147971531207586 95.20604927563505
lradius 102.19980511989549
lwrist 27.235761845148165
lhand -29.230980554933986 3.041081070186168
lfingers nan
lthumb -2.229923972459542 33.64067690252439
rclavicle 8.433859015106762e-08 -5.646579240399586e-07
rhumerus -31.577721394793382 19.12161054045737 -101.6936318642186
rradius 105.21873568257725
rwrist -10.163326316836722
rhand -21.841146795003628 -8.881784189112644e-10
rfingers nan
rthumb 5.241124495559955 6.817636759385419
33
root 0.13058863695362471 18.15584322892893 3.5245930672393246 4.266347358195955 -0.9308390477779427 -4.455112691484329
lfemur -26.978732105369946 -4.496097567567137 -18.092717136188394
ltibia 17.362254219165294
lfoot 8.666450364515486 -11.623090122501457
ltoes -13.62749413221195
rfemur -8.185416353709345 4.505012976163714 29.863782366708847
rtibia 76.11772463085128
rfoot 21.354979627235643 3.3058965715586828
rtoes 6.717018550932786
lowerback -8.881784189112644e-10 1.1821383137089787 1.339734554693894
upperback -0.8150290153637731 2.794394231995406 0.6904868304964407
thorax -7.61681982053305 1.2888281150102048 -1.6079535471914812
lowerneck -18.69714071593033 -4.483463628486176 -1.6157577619532135
upperneck 9.0655913305839 -7.009926351862187 4.75939014697215
head 7.4522291972987675 -2.642406151279414 1.290854434857908
lclavicle -9.217637417927535e-08 -5.496403887835107e-07
lhumerus -62.128786123686815 -5.018969548134334 93.99598710178765
lradius 100.82614118059139
lwrist 27.526155039821578
lhand -29.37519686310628 3.7155763652999902
lfingers nan
lthumb -2.6451873920713473 33.531012644574425
rclavicle 1.6068886119280623e-07 -6.440365089146992e-07
rhumerus -30.1596693833703 19.179825545520238 -101.67512456658501
rradius 104.00164270601132
rwrist -6.6417777157360645
rhand -21.410894473323594 -8.881784189112644e-10
rfingers nan
rthumb 5.283158248091532 7.811794830542467
34
root 0.15527525146617674 18.292337218889937 6.427528044546322 4.147585256588899 -0.7973325751217982 -4.1089125983053965
lfemur -22.027921084711444 -4.9567799898867575 -23.401866605507678
ltibia 14.230186418463894
lfoot 15.031566364931539 -17.146924401123186
ltoes -10.534457782037713
rfemur -13.898785665834225 2.195310104384405 25.547274445601396
rtibia 90.50705585873114
rfoot 24.653686042242853 3.2057634315194727
rtoes 3.1589593448455107
lowerback -8.881784189112644e-10 1.3863304921809116 -2.4894462655264897
upperback -0.6380137410773341 2.505785461538581 -0.2773298761304235
thorax -7.147815713492941 1.0947565129236818 -1.0972631724469974
lowerneck -18.077196699530734 -4.293807564558759 -1.6777488469003825
upperneck 9.649484940338336 -6.833247491200064 4.371379313638441
head 6.678653185626942 -2.529587015581978 1.395120254599755
lclavicle -8.744194118064397e-08 -4.175864643909765e-07
lhumerus -63.40095032319595 -4.114663629110903 92.88081067498092
lradius 100.61267171505585
lwrist 27.930822033590847
lhand -29.540225470246092 3.6880748022035226
lfingers nan
lthumb -2.5384695965557196 34.12624330213357
rclavicle 1.0469684690336622e-07 -4.798726373769928e-07
rhumerus -29.431732882009314 19.135439635143758 -101.62696406756224
rradius 102.03959882251567
rwrist -4.505602213956663
rhand -21.275721602837173 -8.881784189112644e-10
rfingers nan
rthumb 5.644609058602343 7.903393214063262
35
root 0.16036455586540393 18.266587921851066 5.387069999388784 4.074920838383298 -1.8705898070227365 -4.811720898034997
lfemur -23.908705423749133 -6.464568657404301 -22.184292477443826
ltibia 17.210584605119244
lfoot 18.40275886159367 -20.348903128078657
ltoes -6.660573441119292
rfemur -16.532189733698946 0.265832705271583 25.713017632929574
rtibia 98.46555886083573
rfoot 22.985421960681837 1.7585244105341342
rtoes -1.032643859169658
lowerback -8.881784189112644e-10 1.4798692552046415 -1.7635978655937217
upperback -0.39489388883949833 2.7308453152252383 -0.39061099027093626
thorax -6.983195662173644 1.188493480719156 -1.2669959122603958
lowerneck -18.352123382044116 -4.415558346434849 -1.8092751782687324
upperneck 9.747916175821333 -6.282231981826316 4.151837635392928
head 6.301857581298688 -2.300785921015651 1.5533524752457724
lclavicle 8.916726434254497e-08 -3.340629686778134e-07
lhumerus -64.63785636045742 -3.2887759342282887 91.85765702191527
lradius 101.76771745141735
lwrist 28.060688081836823
lhand -29.086251105004926 3.485633390527165
lfingers nan
lthumb -2.093022085941673 33.782768782122375
rclavicle -8.986714460040395e-08 -5.077737342942622e-07
rhumerus -28.491856753280455 19.11767646911226 -101.63938245402915
rradius 100.3777690918771
rwrist -6.061907668157751
rhand -21.117484516277674 -8.881784189112644e-10
rfingers nan
rthumb 5.757043355126944 6.102359356253745
